<svg width="37" height="42" viewBox="0 0 37 42" fill="none" xmlns="http://www.w3.org/2000/svg">
<path d="M18.8157 0.00164795L0.631348 10.4939V31.4963L18.8157 42L37 31.5078V10.4988L18.8157 0.00164795Z" fill="white"/>
<path d="M25.8323 10.3742L31.5244 13.6612L37 10.4988L31.308 7.21341L25.8323 10.3742Z" fill="#E2FC7C"/>
<path d="M18.8157 0L0.631348 10.4988L6.10697 13.6612L24.2896 3.16242L18.8157 0Z" fill="#E2FC7C"/>
<path d="M24.5061 24.2845L18.8157 20.9975L13.1237 24.2845L18.8157 27.5699L24.5061 24.2845Z" fill="#DDFF55"/>
<path d="M18.8157 35.6735L6.10697 28.3355V13.6612L0.631348 10.4988V31.4963L18.8157 41.9951L37 31.4963V10.4988L31.5243 13.6612V28.3355L18.8157 35.6735Z" fill="#DDFF55"/>
<path d="M13.1237 24.2846L18.8157 20.9975L24.5061 24.2846V17.7122L18.8157 14.4268L13.1237 17.7122V24.2846Z" fill="#AFD713"/>
<path d="M24.5061 24.2846L18.8157 27.5699V35.6735L31.5244 28.3355V13.6612L24.5061 17.7122V24.2846Z" fill="#E0DED8"/>
<path d="M13.1237 24.2846L18.8157 27.5699V35.6735L6.10699 28.3355V13.6612L13.1237 17.7122V24.2846Z" fill="#D5D2CA"/>
<path d="M25.8323 10.3742L31.5244 13.6612L24.5061 17.7122L18.8157 14.4268L13.1237 17.7122L6.10699 13.6612L24.2897 3.16241L31.308 7.21339L25.8323 10.3742Z" fill="white"/>
</svg>
