<svg width="19" height="20" viewBox="0 0 19 20" fill="none" xmlns="http://www.w3.org/2000/svg">
<path d="M1 3H11M1 10H11M1 17H11M14 19.243L16.121 17.121M16.121 17.121L18.243 15M16.121 17.121L14 15M16.121 17.121L18.243 19.243M16 12C16.5304 12 17.0391 11.7893 17.4142 11.4142C17.7893 11.0391 18 10.5304 18 10C18 9.46957 17.7893 8.96086 17.4142 8.58579C17.0391 8.21071 16.5304 8 16 8C15.4696 8 14.9609 8.21071 14.5858 8.58579C14.2107 8.96086 14 9.46957 14 10C14 10.5304 14.2107 11.0391 14.5858 11.4142C14.9609 11.7893 15.4696 12 16 12ZM16 5C16.5304 5 17.0391 4.78929 17.4142 4.41421C17.7893 4.03914 18 3.53043 18 3C18 2.46957 17.7893 1.96086 17.4142 1.58579C17.0391 1.21071 16.5304 1 16 1C15.4696 1 14.9609 1.21071 14.5858 1.58579C14.2107 1.96086 14 2.46957 14 3C14 3.53043 14.2107 4.03914 14.5858 4.41421C14.9609 4.78929 15.4696 5 16 5Z" stroke="#51525B" stroke-width="1.5" stroke-linecap="round" stroke-linejoin="round"/>
</svg>
