<svg xmlns="http://www.w3.org/2000/svg" style="display: none;">
<symbol id='Breads' viewBox="0 0 20 18" fill="none">
<path d="M5.03992 17V6C5.03992 6 1.03992 1 7.53992 1H15.0399C22.0399 1 18.0399 6 18.0399 6V15C18.0399 15.5304 17.8292 16.0391 17.4541 16.4142C17.0791 16.7893 16.5704 17 16.0399 17H5.03992Z" stroke="#51525B" stroke-width="1.5" stroke-linecap="round" stroke-linejoin="round"/>
<path d="M5.03992 17H4.03992C3.50949 17 3.00078 16.7893 2.62571 16.4142C2.25064 16.0391 2.03992 15.5304 2.03992 15V6C2.03992 6 -1.96008 1 4.53992 1H8.03992" stroke="#51525B" stroke-width="1.5" stroke-linecap="round" stroke-linejoin="round"/>
</symbol>

<symbol id='Operations' viewBox="0 0 24 24">
<path d="M8.5 4H6C5.46957 4 4.96086 4.21071 4.58579 4.58579C4.21071 4.96086 4 5.46957 4 6V20C4 20.5304 4.21071 21.0391 4.58579 21.4142C4.96086 21.7893 5.46957 22 6 22H12M15.5 4H18C18.5304 4 19.0391 4.21071 19.4142 4.58579C19.7893 4.96086 20 5.46957 20 6V15" stroke="#51525B" stroke-width="1.5" stroke-linecap="round"/>
<path d="M8 6.4V4.5C8 4.36739 8.05268 4.24021 8.14645 4.14645C8.24021 4.05268 8.36739 4 8.5 4C8.776 4 9.004 3.776 9.052 3.504C9.2 2.652 9.774 1 12 1C14.226 1 14.8 2.652 14.948 3.504C14.996 3.776 15.224 4 15.5 4C15.6326 4 15.7598 4.05268 15.8536 4.14645C15.9473 4.24021 16 4.36739 16 4.5V6.4C16 6.55913 15.9368 6.71174 15.8243 6.82426C15.7117 6.93679 15.5591 7 15.4 7H8.6C8.44087 7 8.28826 6.93679 8.17574 6.82426C8.06321 6.71174 8 6.55913 8 6.4Z" stroke="#51525B" stroke-width="1.5" stroke-linecap="round"/>
<path d="M15.5 20.5L17.5 22.5L22.5 17.5" stroke="#51525B" stroke-width="1.5" stroke-linecap="round" stroke-linejoin="round"/>
</symbol>


<symbol id='Production' viewBox="0 0 19 20">
<path d="M1 3H11M1 10H11M1 17H11M14 19.243L16.121 17.121M16.121 17.121L18.243 15M16.121 17.121L14 15M16.121 17.121L18.243 19.243M16 12C16.5304 12 17.0391 11.7893 17.4142 11.4142C17.7893 11.0391 18 10.5304 18 10C18 9.46957 17.7893 8.96086 17.4142 8.58579C17.0391 8.21071 16.5304 8 16 8C15.4696 8 14.9609 8.21071 14.5858 8.58579C14.2107 8.96086 14 9.46957 14 10C14 10.5304 14.2107 11.0391 14.5858 11.4142C14.9609 11.7893 15.4696 12 16 12ZM16 5C16.5304 5 17.0391 4.78929 17.4142 4.41421C17.7893 4.03914 18 3.53043 18 3C18 2.46957 17.7893 1.96086 17.4142 1.58579C17.0391 1.21071 16.5304 1 16 1C15.4696 1 14.9609 1.21071 14.5858 1.58579C14.2107 1.96086 14 2.46957 14 3C14 3.53043 14.2107 4.03914 14.5858 4.41421C14.9609 4.78929 15.4696 5 16 5Z" stroke="#51525B" stroke-width="1.5" stroke-linecap="round" stroke-linejoin="round"/>
</symbol>



<symbol id='Reports' viewBox="0 0 24 24">
<path d="M20 20H4V4" stroke="#51525B" stroke-width="1.5" stroke-linecap="round" stroke-linejoin="round"/>
<path d="M4 16.5L12 9L15 12L19.5 7.5" stroke="#51525B" stroke-width="1.5" stroke-linecap="round" stroke-linejoin="round"/>
</symbol>

</svg>
